<?xml version="1.0" encoding="UTF-8" standalone="no"?>
<svg
   viewBox="0 0 67.561447 66.887718"
   version="1.1"
   id="svg6"
   sodipodi:docname="logo.svg"
   inkscape:version="1.2 (dc2aedaf03, 2022-05-15)"
   inkscape:export-filename="logo.png"
   inkscape:export-xdpi="73.4278"
   inkscape:export-ydpi="73.4278"
   xmlns:inkscape="http://www.inkscape.org/namespaces/inkscape"
   xmlns:sodipodi="http://sodipodi.sourceforge.net/DTD/sodipodi-0.dtd"
   xmlns="http://www.w3.org/2000/svg"
   xmlns:svg="http://www.w3.org/2000/svg">
  <defs
     id="defs10" />
  <sodipodi:namedview
     id="namedview8"
     pagecolor="#505050"
     bordercolor="#eeeeee"
     borderopacity="1"
     inkscape:showpageshadow="0"
     inkscape:pageopacity="0"
     inkscape:pagecheckerboard="0"
     inkscape:deskcolor="#505050"
     showgrid="false"
     inkscape:zoom="4.6197669"
     inkscape:cx="12.554746"
     inkscape:cy="34.20086"
     inkscape:window-width="1920"
     inkscape:window-height="1050"
     inkscape:window-x="-11"
     inkscape:window-y="-11"
     inkscape:window-maximized="1"
     inkscape:current-layer="g4" />
  <g
     fill-rule="evenodd"
     fill="currentColor"
     transform="matrix(0.62193803,0,0,0.62193803,-29.654766,-110.71158)"
     style="mix-blend-mode:normal"
     id="g4"
     inkscape:label="group">
    <ellipse
       style="opacity:1;fill:#ffffff;stroke-width:50;stroke-linecap:round;stroke-linejoin:round;paint-order:markers stroke fill"
       id="path345"
       cx="33.780724"
       cy="33.443859"
       rx="33.780724"
       ry="33.443859"
       transform="matrix(1.6078772,0,0,1.6078772,47.681223,178.01063)"
       inkscape:label="bg-circle" />
    <path
       d="m 86.708872,202.42625 h -4.00006 v 7.43883 h -7.43714 v 3.99837 h 7.43714 v 7.43883 h 4.00006 v -7.43883 h 7.43883 v -3.99837 h -7.43883 z m 30.223628,12.22503 h 13.59277 v -5.04234 H 116.9325 Z m -38.566948,54.66269 c -7.04829,0 -12.76012,-5.71353 -12.76012,-12.76012 v -23.25394 h 36.012388 v 5.27019 30.74387 z m 45.381078,-30.86521 c -0.84786,0 -1.58836,0.30601 -2.22319,0.91717 -0.63653,0.61032 -0.95437,1.36435 -0.95352,2.26123 0,0.4252 0.0879,0.82926 0.2629,1.21642 0.17414,0.38547 0.40575,0.72106 0.69147,1.00762 0.28572,0.28657 0.62046,0.51058 1.00847,0.67372 0.38547,0.16061 0.80221,0.24261 1.25108,0.24261 0.42266,0 0.8225,-0.0879 1.19528,-0.2629 0.37532,-0.17329 0.69823,-0.40998 0.97297,-0.71007 0.27219,-0.2984 0.49705,-0.63315 0.67203,-1.00847 0.17498,-0.37448 0.2629,-0.76163 0.2629,-1.15978 0,-0.44802 -0.0879,-0.86476 -0.2629,-1.25023 -0.17414,-0.38716 -0.40491,-0.72359 -0.69147,-1.01016 -0.28572,-0.28741 -0.61624,-0.50973 -0.98987,-0.67287 -0.37194,-0.16145 -0.77178,-0.2443 -1.19613,-0.2443 z m -45.361628,2.00003 -3.03386,3.03386 6.34498,6.38471 -6.42529,6.38471 3.03301,3.03301 6.42529,-6.42613 6.3864,6.42613 3.03132,-3.03301 -6.42359,-6.38471 6.42359,-6.38471 -3.03132,-3.03386 -6.3864,6.38471 z m 35.905868,10.93339 h 18.87602 v -3.99752 h -18.87602 z m 11.66205,7.88853 c 0.27219,-0.30009 0.49705,-0.63653 0.67203,-1.01016 0.17498,-0.37279 0.2629,-0.74726 0.26374,-1.12259 0,-0.44802 -0.0879,-0.858 -0.2629,-1.23248 -0.17414,-0.37448 -0.40491,-0.70331 -0.69147,-0.98987 -0.28572,-0.28572 -0.61624,-0.51058 -0.98987,-0.67372 -0.37194,-0.16061 -0.77178,-0.24176 -1.19613,-0.24176 -0.42351,0 -0.82926,0.0812 -1.21473,0.24176 -0.388,0.16315 -0.72275,0.388 -1.00847,0.67372 -0.28572,0.28572 -0.51649,0.61455 -0.69147,0.98987 -0.17498,0.37363 -0.2629,0.78361 -0.2629,1.23248 0,0.39984 0.0888,0.79122 0.2629,1.17838 0.17414,0.38716 0.40575,0.7219 0.69147,1.00931 0.28572,0.28657 0.62046,0.51818 1.00847,0.69147 0.38547,0.17414 0.80221,0.2612 1.25108,0.2612 0.42266,0 0.8225,-0.093 1.19528,-0.28065 0.37532,-0.18682 0.69823,-0.42858 0.97297,-0.72697 z"
       fill="currentColor"
       id="path2"
       sodipodi:nodetypes="ccccccccccccccccccssccccsscccscscccscccssccccccccccccccccccscccscscscscccscss"
       inkscape:label="vector"
       style="mix-blend-mode:normal" />
  </g>
</svg>
